<?xml version="1.0" encoding="UTF-8"?>
<svg id="svg1" xmlns="http://www.w3.org/2000/svg" xmlns:svg="http://www.w3.org/2000/svg" xmlns:sodipodi="http://sodipodi.sourceforge.net/DTD/sodipodi-0.dtd" xmlns:inkscape="http://www.inkscape.org/namespaces/inkscape" version="1.1" viewBox="0 0 980 1024">
  <!-- Generator: Adobe Illustrator 30.1.0, SVG Export Plug-In . SVG Version: 2.1.1 Build 136)  -->
  <defs>
    <style>
      .st0 {
        fill: #000;
      }
    </style>
  </defs>
  <sodipodi:namedview id="namedview1" bordercolor="#000000" borderopacity="0.25" inkscape:current-layer="g1" inkscape:cx="489.47995" inkscape:cy="512" inkscape:deskcolor="#d1d1d1" inkscape:pagecheckerboard="0" inkscape:pageopacity="0.0" inkscape:showpageshadow="2" inkscape:window-height="991" inkscape:window-maximized="1" inkscape:window-width="1920" inkscape:window-x="-9" inkscape:window-y="-9" inkscape:zoom="0.75488281" pagecolor="#ffffff" showgrid="false"/>
  <g id="g1" inkscape:groupmode="layer" inkscape:label="Image">
    <path id="path1" class="st0" d="M621.38,1008.64c4.1-2.08,6.62-4.23,6.62-5.67,0-7.53-15.03-31.25-26.88-42.44-8.7-8.22-10.51-9.37-50.3-32.17-17.32-9.92-32.64-18.84-34.05-19.82-2.53-1.76-2.53-1.8,0-2.82,1.41-.57,6.76-1,11.9-.96,8.35.07,11.09.86,26,7.49,110.16,48.98,190.3,56.64,254.88,24.34,14.48-7.24,31.92-17.97,31.17-19.19-.36-.58-3.22-.55-6.35.08-33.99,6.81-50.89,4.93-120.04-13.37-70.1-18.54-76.28-19.45-132.32-19.38-38.83.05-40.37.15-52.67,3.5-6.97,1.9-17.47,5.77-23.33,8.61-9.26,4.47-11.9,5.15-20,5.15s-10.68-.65-21.04-5.67c-16.6-8.05-27.96-10.87-50.82-12.63-25.23-1.94-74.17.25-96.82,4.35-8.43,1.52-32.73,7.2-54,12.61-57.03,14.52-64.86,15.86-92.67,15.94-14.91.04-26.14-.58-31.11-1.72-4.27-.98-8.1-1.45-8.5-1.06-1.13,1.13,18.94,13.6,32.27,20.06,14.52,7.04,27.78,11.65,44.67,15.55,15.74,3.63,53.08,5.01,72.88,2.69,37.15-4.36,76.46-15.67,125.79-36.19,9.17-3.81,19.52-8.06,23.01-9.43,6.28-2.47,16.41-3.03,24.19-1.34,5.18,1.13,5.59.84-29.21,20.19-48.2,26.81-56.1,32.4-66.53,47.1-6.4,9.02-15.47,26.32-15.47,29.49,0,1.99,11.6,8.72,15.03,8.72.98,0,3.85-2.17,6.38-4.83,9.24-9.71,42.27-39.85,54.87-50.05,25.03-20.28,53.21-36.73,65.22-38.05,5.04-.56,7.66.27,19.17,6.06,27.75,13.96,47.45,29.2,85.33,66.03,12.47,12.12,23.44,22.07,24.38,22.11.94.04,4.69-1.44,8.33-3.29h0ZM727.58,884.01c16.13-1.25,48.16-7.56,70.98-13.98,35.03-9.85,61.92-23.79,79.18-41.05,11.11-11.11,19.72-23.65,16.24-23.65-.38,0-5.96,2.65-12.41,5.88-20.26,10.18-34.67,13.57-71.27,16.78-22.17,1.95-26.61,3.11-54.03,14.16-13.42,5.41-24.81,9.84-25.32,9.84s2.07-2.02,5.73-4.49c9.59-6.48,19.75-17.81,24.61-27.42,2.32-4.59,5.94-15.04,8.06-23.21,4.76-18.38,12.31-58.58,11.74-62.49-.33-2.25-3.79,1.51-15.7,17.03-42.21,55.05-70.66,87.11-99.11,111.69-14.43,12.47-16.7,14.93-14.5,15.74,3.57,1.32,34.79,5.08,46.22,5.57,5.13.22,10.23.5,11.33.63s9.31-.34,18.24-1.03h0ZM288.67,881.31c8.8-.73,20.19-2,25.32-2.83l9.32-1.5-11.32-10.13c-34.2-30.6-57.18-56.78-100.58-114.55-9.49-12.64-17.75-22.98-18.35-22.98-1.21,0-.89,2.69,3.76,31.33,5.77,35.54,12,55.21,21.65,68.28,3.72,5.04,11.01,11.53,20.26,18.03,4.12,2.89-12.42-2.98-32.05-11.39-18.38-7.87-20.44-8.36-49.2-11.6-37.87-4.27-53.9-8.47-70.77-18.56-4.78-2.86-8.89-4.64-9.14-3.96-.71,1.96,12.21,18.61,20.7,26.66,22.04,20.91,56.76,35.89,111.08,47.92,28.36,6.28,49.9,7.71,79.33,5.26h0ZM518.33,847.78c18.14-4.57,28.15-31.05,20.33-53.77-5.28-15.36-14.81-22.5-30-22.5-25.23,0-39.22,25.81-29.7,54.8,6.08,18.53,20.29,26.28,39.37,21.47h0ZM497.58,835.96c-7.01-4.28-10.23-12.84-10.24-27.29,0-10.29.44-12.72,3.13-17.04,4.25-6.83,12.19-10.79,19.92-9.92,7.36.83,11.98,4.16,16.28,11.74,2.89,5.1,3.33,7.48,3.28,17.88-.06,14.44-3.06,21.66-10.41,25.15-6.42,3.05-16.49,2.81-21.96-.52h0ZM460.24,809.67c10.53-36.07,10.62-36.97,3.86-37.89-3.02-.41-3.52.47-7.66,13.74l-4.43,14.19-13.67-3.92c-7.52-2.15-14.39-4.16-15.27-4.45-1.16-.39-.71-3.73,1.68-12.27,1.8-6.45,3.62-13.03,4.04-14.6.64-2.39.05-3.03-3.48-3.8-2.33-.51-4.74-.42-5.35.2-.61.62-5.49,16.31-10.85,34.86-10.4,36-10.42,36.2-2.83,36.25,2.51.02,3.35-1.4,5.75-9.65,1.54-5.32,3.69-12.45,4.78-15.85l1.98-6.19,14.74,4.43c8.11,2.44,14.95,4.64,15.21,4.9.26.26-1.53,7.35-3.98,15.76-4,13.75-4.24,15.45-2.35,16.95,1.16.92,3.39,1.67,4.96,1.67,2.59,0,3.8-3.25,12.88-34.33h0ZM580,832.71c0-.76-2.5-7.23-5.55-14.38-3.05-7.15-5.21-13.35-4.8-13.76,1.66-1.66,20.15-8.57,22.92-8.57,3.84,0,7.12,3.89,12.63,15,4.64,9.34,5.72,10.04,11.4,7.45,4.2-1.91,4.22-2.87.21-8.21-1.75-2.33-5.02-7.91-7.25-12.38-2.92-5.84-5.2-8.61-8.07-9.79-3.54-1.46-3.85-2.04-2.75-4.95,2-5.27,1.46-11.17-1.6-17.49-4.43-9.15-13.09-13.08-21.42-9.72-1.68.68-9.83,3.77-18.09,6.86-13.64,5.11-14.95,5.89-14.14,8.43.49,1.54,6.2,15.23,12.69,30.43s11.81,28.11,11.81,28.7.9,2.36,2,3.93c1.76,2.51,2.47,2.67,6,1.34,2.2-.83,4.01-2.13,4.01-2.89h0ZM561.45,787.59c-6.55-14.59-6.95-13.29,5.67-18.17,6.14-2.38,12.58-4.12,14.31-3.87,3.64.52,9.24,8.1,9.24,12.5,0,4.77-3.93,8.23-15.06,13.25l-10.39,4.69-3.77-8.4ZM377.55,779.33c7.45-11.73,14.28-22.14,15.17-23.12,1.34-1.48,3.14-.83,10.26,3.67,4.75,3,9.01,5.46,9.46,5.46s1.73-1.75,2.83-3.89l2.01-3.89-21.88-14.11c-12.03-7.76-22.5-14.11-23.26-14.11-1.47,0-4.14,4.22-4.14,6.53,0,.75,3.6,3.82,8,6.8s8,5.9,8,6.47-7.49,12.7-16.64,26.95l-16.64,25.91,3.64,3.02,3.64,3.02,3-3.68c1.65-2.03,9.1-13.28,16.55-25.02h0ZM822,799.05c11.73-4.07,21.93-7.84,22.67-8.39s2.83-1.45,4.67-1.99c6.75-2.01,35.67-17.14,46.67-24.42,33-21.83,54.43-54.9,63.96-98.74,1.61-7.42,2.7-14.18,2.42-15.02s-3.59,2.3-7.35,6.99c-17.02,21.22-35.37,36.17-83.7,68.16-9.53,6.31-21.16,14.59-25.85,18.39-8.21,6.67-8.48,6.78-7.54,3.11,4.89-19.15,7.37-40.79,7.43-64.75.05-19.76,2-62.75,3.4-75.05l.91-8-4.32,4c-27.39,25.37-50.71,110.32-50.71,184.72v20.13l3-.87c1.65-.48,12.6-4.19,24.33-8.26h0ZM177.6,769.01c-1.81-38.45-4-56.86-9.76-82.12-9.54-41.83-23.85-74.02-39.2-88.22l-3.61-3.33.8,6c.44,3.3,1.38,28.5,2.08,56,1.29,50.18,2.27,63.09,6.05,79.38,2.61,11.26,2.67,11.03-1.63,7.11-4.16-3.79-14.36-11.18-40.33-29.2-40.33-27.98-54.04-39.49-70.36-59.06-4.87-5.83-9.07-9.94-9.34-9.13-.8,2.4,3.65,22.57,8,36.23,4.52,14.21,13.11,32.04,20.18,41.89,6.68,9.31,22.63,25.2,32.83,32.71,11.32,8.34,29.51,18.58,45.36,25.53,21.48,9.42,57.9,22.38,59.26,21.08.79-.75.67-13.79-.33-34.88h0ZM646.6,798.76l3.27-2.51-7.68-11.13c-4.22-6.12-13.49-19.66-20.6-30.1s-13.52-18.96-14.26-18.96c-2.66.03-7.54,5.17-6.54,6.89,2.12,3.61,36.99,53.83,38.92,56.04,2.51,2.88,2.84,2.87,6.88-.24h0ZM689.27,763.4l3.07-3.26-21.17-22.11c-11.64-12.16-21.33-22.57-21.52-23.12s2.73-4.46,6.49-8.68c6.63-7.43,6.77-7.76,4.48-10.28-2.27-2.51-2.26-2.61.18-2.61,8.62.02,46.54,4.26,48.78,5.46,1.48.79,6.74,4.39,11.67,7.99s9.55,6.55,10.24,6.55,2.31-1.77,3.59-3.93l2.32-3.93-12.07-8.36c-13.28-9.2-11.35-6.33-27.47-40.78-3.18-6.78-6.3-12.33-6.94-12.33s-2.29,2.08-3.66,4.63l-2.49,4.63,8.42,16.12c4.63,8.87,8.08,16.46,7.66,16.88s-8.73-.12-18.47-1.19l-17.71-1.95-3.33,3.77c-4.01,4.54-22.68,22.94-34.67,34.18l-8.67,8.12,3.66,3.7,3.66,3.7,7.74-7.66,7.74-7.66,21.71,22.7c11.94,12.48,22.15,22.7,22.7,22.7s2.37-1.47,4.06-3.26h0ZM328.71,762.83c4.88-2.22,29.15-23.37,40.57-35.36l4.62-4.85-3.5-3.5-3.5-3.5-16.45,15.91c-9.05,8.75-18.48,17.33-20.95,19.06-13.7,9.59-29.86-2.79-23.56-18.05,1.44-3.49,8.22-11.03,20.44-22.73l18.29-17.52-3.26-3.51c-1.79-1.93-3.73-3.35-4.3-3.15-2.96,1.02-38.64,38.08-40.63,42.21-2.85,5.92-2.91,16.83-.11,22.18,4.36,8.36,14.64,15.17,22.97,15.22,2.2.01,6.42-1.08,9.38-2.42h0ZM301.26,693.66c15.73-18.8,28.52-35.22,28.42-36.49-.26-3.42-4.37-9.17-6.56-9.17-1.48,0-49.48,10.84-82.96,18.73-6.68,1.58-7.23,2.91-3.16,7.65l3.66,4.27,12.27-3.17c11.3-2.92,12.42-3,14.13-.99,3.23,3.76,14.26,21.53,14.26,22.96,0,.75-3.6,5.55-8,10.66s-8,9.94-8,10.72c0,2.35,4.47,9.18,5.95,9.09.76-.05,14.25-15.46,29.98-34.26h0ZM283.49,679.37l-5.98-9.84,17.37-4.2c9.55-2.31,17.55-4,17.77-3.77s-4.91,6.56-11.39,14.04l-11.79,13.61-5.98-9.84ZM533.58,719.88c53.19-10.55,102.36-46.1,136.81-98.92,12.31-18.88,26.01-47.6,33.55-70.36,26.61-80.35,21.86-171.2-12.92-247.12-34.19-74.62-94.04-125.13-161.39-136.2-20.82-3.42-53.56-2.21-72.17,2.68-61.83,16.22-114.14,62.48-146.3,129.38-33.04,68.73-41.22,152.22-22.31,227.87,13.72,54.87,37.89,99.4,73.15,134.75,23.28,23.34,45.4,38.27,72,48.6,33.68,13.08,65.58,16.06,99.58,9.32h0ZM563.43,689.8c-7.18-2.2-18.63-9.08-22.64-13.6-3.36-3.78-4.8-3.62-10.85,1.19-2.8,2.23-9.03,5.98-13.85,8.33-7.88,3.86-9.95,4.28-20.76,4.28s-12.49-.29-19.33-4.4c-4.03-2.42-10.05-6.43-13.37-8.91l-6.04-4.52-6.87,4.61c-9.04,6.06-22.99,11.22-30.33,11.22-4.8,0-7.56-1.14-14.97-6.17-14.13-9.6-33.83-26.19-33.71-28.38.02-.43,1.24-2.22,2.7-3.97l2.66-3.19,9.63,10.08c11.86,12.41,18.72,16.17,29.66,16.25,10.53.08,22-5.5,34.37-16.71,4.98-4.52,9.22-7.99,9.42-7.72,8.44,11.77,11.01,14.94,14.75,18.22,6.45,5.66,15.38,8.75,23.16,8,9.53-.92,18.45-5.93,29.18-16.39l9.57-9.33,2.77,4.1c5.06,7.47,15.23,16.61,22.42,20.12,14.39,7.04,30.44,2.12,46.96-14.4,4.4-4.4,8.53-7.68,9.18-7.28s1.97,2.64,2.94,4.98c1.71,4.14,1.62,4.37-3.49,8.82-16.19,14.07-37.21,27.08-43.45,26.9-1.73-.05-6.09-1-9.71-2.11h0ZM565.53,630.57c-6.79-1.33-15.81-6.36-22.86-12.72-2.75-2.48-5.44-4.51-5.99-4.51s-3.86,2.1-7.36,4.67c-10.44,7.66-20.67,11.68-31.47,12.38-11.89.76-15.2-.36-29.52-9.98l-11.33-7.62-4.83,3c-16.65,10.33-33.53,14.91-45.5,12.34-8.99-1.93-13.8-4.54-21.32-11.57l-6.23-5.83-5.49,4.04c-6.31,4.64-20.14,10.58-24.6,10.56-2.23,0-4.42-2.16-8.36-8.22-6.99-10.75-6.94-10.44-1.55-10.44,7.92,0,16.65-4.82,27.13-14.98l9.9-9.6,3.51,4.63c13.53,17.81,29.06,25.42,43.8,21.44,7.14-1.92,20.33-10.53,28.17-18.36l6.25-6.25,2.73,3.85c5.92,8.34,16.33,18.44,21.4,20.77,13.16,6.04,29.22.86,44.38-14.3l8.79-8.79,2.65,3.8c5.04,7.23,16.27,17.28,22.87,20.48,14.21,6.88,27.66,2.87,45.18-13.49l10-9.34,3.35,5.31c5.35,8.47,11.34,14.67,17.96,18.55,5.01,2.94,7.78,3.62,14.92,3.62h8.77l-6.65,9.14-6.65,9.14-5.4-.86c-6.54-1.05-12.69-4.69-17.85-10.57-5.73-6.52-6.47-6.67-12.66-2.43-9.22,6.32-16.73,9.67-26.15,11.66-9.85,2.09-11.64,2.13-20,.49h0ZM639.75,567.47c-5.9-1.59-18.41-10.29-18.41-12.8,0-.63-1.18-1.53-2.62-1.98-1.75-.55-5.57.95-11.49,4.52-12.69,7.66-20.68,10.09-33.22,10.11-8.93.02-11.87-.57-18.04-3.6-4.06-1.99-9.85-5.74-12.88-8.33s-6.19-4.71-7.03-4.71-5.05,2.39-9.35,5.31c-11.63,7.9-20.42,11.01-31.37,11.11-10.38.09-17.19-2.67-31.55-12.79l-7.55-5.32-3.79,2.67c-12.48,8.81-30.02,14.31-42.49,13.33-9.37-.73-16.19-3.9-24.83-11.51-3.41-3.01-6.5-5.47-6.87-5.47s-3.7,2.04-7.41,4.54c-7.86,5.29-20.4,9.71-30.97,10.92-9.78,1.12-20.44-1.96-26.85-7.76-4.23-3.82-5.36-6.27-8.94-19.42-2.25-8.27-4.1-15.7-4.1-16.5s4.48,2.8,9.96,8c17.74,16.85,29.44,20.21,44.29,12.7,4.16-2.1,11.17-7.51,15.58-12.01l8.02-8.19,9.15,9.8c19.44,20.81,35.4,22.12,58.3,4.78,4.02-3.04,8.71-7.33,10.43-9.53s3.62-4,4.23-4,3,2.97,5.33,6.6c16.48,25.68,40.11,26.97,63.28,3.46l8.34-8.46,9.51,10.4c11.26,12.31,18.53,16.39,29.46,16.54,10.58.14,21-5.22,32.6-16.77,5.03-5,9.29-9.1,9.48-9.1s2.81,3.82,5.83,8.48c16.38,25.33,38.89,26.01,63.71,1.94,6.74-6.54,9.84-8.79,9.84-7.17,0,1.3-2.15,9.26-4.78,17.68l-4.78,15.31-6.89,3.14c-12.12,5.52-29.42,7.24-41.14,4.08h0ZM565.21,504.14c-7.27-2.33-20.66-10.27-23.91-14.18-2.32-2.8-4.08-2.45-9.32,1.86-10.39,8.54-26.62,14.14-38.48,13.27-6.4-.47-9.39-1.75-20.62-8.81-7.23-4.55-13.61-8.27-14.18-8.27s-6.08,2.68-12.23,5.95c-24.87,13.23-42.18,12.47-58.23-2.54l-6.53-6.11-8.9,5.2c-13.57,7.93-25.46,11.31-37.15,10.56-10.66-.68-16.76-3.65-27.34-13.31l-5.71-5.21-4.04,2.88c-2.22,1.58-4.31,2.6-4.65,2.26s-1.26-8.95-2.06-19.15c-2.34-30.01.37-65.89,7.34-97.2,17.81-80.02,64.34-145.64,124.82-176.01,17.56-8.82,42.28-16.52,53.33-16.63l3.33-.03-.34,27.67c-.19,15.22-.65,29.02-1.03,30.67l-.68,3h-41.97c-38.26,0-42.18.21-44.31,2.34-1.28,1.29-7.62,10.74-14.09,21-6.47,10.26-23.42,36.93-37.67,59.26s-25.91,41.06-25.91,41.61c0,1.43,16.59,14.57,25.74,20.38,25.04,15.9,53.3,21.85,75.95,15.98,9.37-2.43,23.82-9.43,34.31-16.64,10.42-7.16,21.67-18.3,20.48-20.3-1.07-1.8-24.79-39.75-51.41-82.23-9.39-14.99-17.08-27.59-17.08-28s17.17-.75,38.17-.75h38.17l-.96,37.33c-.53,20.53-1.38,55.63-1.9,78-.87,37.5-1.16,41.16-3.79,46.97-1.56,3.47-4.36,7.82-6.2,9.67l-3.36,3.36h-48.58c-43.07,0-48.68.24-49.39,2.11-1.21,3.16-.93,38.3.32,40.27.87,1.37,28.09,1.88,135.35,2.55l134.26.84-.37-21.88-.37-21.88-48.67-.71c-26.77-.39-48.79-.84-48.93-1s-2.05-2.2-4.23-4.53c-7.79-8.33-7.99-10.45-8.99-94.1l-.91-76.33h77.6l-18.27,28.02c-10.05,15.41-21.57,33.09-25.6,39.29s-12.08,18.56-17.89,27.47c-8.3,12.74-10.27,16.67-9.2,18.37,2.78,4.46,24.93,20,36.8,25.82,28.61,14.03,47.25,15.56,72.77,5.97,17.44-6.55,45.69-26.89,45.44-32.73-.05-1.22-17-29.53-37.67-62.89l-37.58-60.67-42.92-.35-42.92-.35-.81-5.65c-.45-3.11-.63-17.4-.41-31.76l.4-26.11,13.33,3c36.64,8.24,64.82,24.35,94.05,53.75,32.15,32.34,56.04,75.45,67.9,122.51,8.84,35.07,10.01,45.35,10,87.63,0,21.27-.49,41.53-1.07,45.03l-1.06,6.36-3.93-2.8-3.93-2.8-5.81,5.1c-8.41,7.39-16.35,9.98-32.83,10.71-16.87.75-21.02-.64-31.52-10.58-8-7.57-6.83-7.59-19.63.37-6.49,4.03-26.63,10.66-32,10.53-1.57-.04-6.21-1.15-10.31-2.46h0ZM446.33,460.33l-69-.36v-20.4l42.72.83c25.72.5,44.04.33,46.03-.43,5.73-2.18,14.9-12.88,18-21.01,3.31-8.68,3.77-19.18,6.52-146.96.83-38.5,1.84-75.55,2.25-82.33l.74-12.33h15.43l.92,74.33c.51,40.88,1.37,94.13,1.91,118.33,1.14,50.6,1.47,52.17,13.6,64.12l6.64,6.54,44.95.67,44.95.67.39,9.67.39,9.67-53.73-.32c-29.55-.18-84.78-.48-122.73-.68h0ZM546.89,357.55c.24-.61,13.87-22.53,30.29-48.71,26.14-41.69,30.05-47.3,31.48-45.22,3.5,5.08,57.05,91.81,57.65,93.38.51,1.32-11.96,1.67-59.61,1.67-33.14,0-60.05-.5-59.81-1.11ZM334.9,355.61c.24-.95,13.31-22.83,29.05-48.61l28.62-46.89,4.92,7.61c24.71,38.24,55.85,87.58,55.85,88.49,0,.62-26.74,1.12-59.43,1.12-47.99,0-59.35-.33-59-1.73h0ZM909.79,661.33c24.45-23.89,35.2-36.39,43.42-50.45,10.84-18.55,16.23-36.57,18.81-62.89,2.16-22.01,3.24-54.67,1.81-54.67-.69,0-3.52,5.33-6.27,11.84-7.43,17.55-15.98,31.69-36.94,61.07-10.37,14.54-21.35,30.22-24.4,34.85l-5.55,8.42-2.89-24.42c-4.08-34.45-5.71-45.2-9.16-60.52-4.32-19.14-11.38-40.75-13.13-40.18-2.72.9-8.71,12.19-11.1,20.94-3.7,13.5-3.16,47.51,1.38,87.33,2.01,17.6,4.1,38.3,4.64,46,1.02,14.39.08,43.52-1.79,55.33l-1.05,6.67,9.86-8.67c5.42-4.77,19.99-18.57,32.38-30.67h0ZM106.12,691.67c-4.12-20.29-4.17-47.73-.15-79.67,1.06-8.43,3.56-30.02,5.55-47.97,3.23-29.12,3.46-34.14,2.16-46.67-.8-7.72-2.4-17.08-3.55-20.82-2.18-7.06-7.07-15.33-9.55-16.15-1.55-.51-10.87,28.9-15.08,47.6-1.4,6.23-3.89,21.23-5.52,33.33s-3.68,27.1-4.54,33.33l-1.58,11.33-3.12-6c-3.93-7.57-14.29-23.05-24.1-36-18.79-24.81-35.78-54.07-41.23-71-2.34-7.27-4.07-6.13-4.07,2.67,0,17.02,2.84,57.68,4.77,68.16,3.85,21,12.67,40.41,27.03,59.5,6.26,8.33,70.63,72.67,72.69,72.67.65,0,.78-1.95.3-4.33ZM222.84,590.74c21-5.89,39.15-11.08,40.33-11.53,2.64-1.01,2.68-2.05.27-7.81l-1.89-4.52-17.78,5.28c-9.78,2.9-28.57,8.3-41.77,12-13.19,3.7-24.19,6.92-24.43,7.16-.24.24.3,2.9,1.21,5.92,1.2,3.99,2.22,5.31,3.76,4.85,1.16-.35,19.29-5.45,40.29-11.34h0ZM792.94,591.75c6.44-4.27,10.1-11.23,13.19-25.09,4.04-18.14,7.4-15.42-30.8-24.93-18.33-4.56-34.34-8.32-35.56-8.35-1.76-.04-2.99,3.2-5.82,15.39-2.19,9.41-3.3,17.25-2.84,20.05,1.67,10.31,9,17.49,24.45,23.97,6.65,2.79,9.54,3.21,19.88,2.9,10.55-.32,12.79-.82,17.51-3.94h0ZM756.67,582.25c-3.67-1.75-8.62-5.02-11-7.25-3.61-3.39-4.33-5.03-4.31-9.87.04-8.32,3.08-19.13,5.39-19.13,1.05,0,12.86,2.67,26.25,5.93,17.56,4.28,24.33,6.47,24.33,7.86,0,4.69-5.58,20.02-8.13,22.33-2.22,2.01-5.23,2.63-14.34,2.93-9.9.33-12.47-.06-18.2-2.8h0ZM218.67,552.03c15.77-2.23,30.62-4.38,33-4.77,3.92-.64,4.33-1.16,4.33-5.32,0-5.31-.31-5.38-14.41-3.28-30.84,4.6-36.21,5.34-38.89,5.34-2.05,0,4.83-5.94,22.16-19.1,21.66-16.46,25.19-19.64,25.49-23,.73-8.23,1.13-8.2-37.24-2.66-19.31,2.79-35.55,5.33-36.1,5.66-1.55.91-1.18,5.03.67,7.36,1.51,1.91,4.1,1.75,27.63-1.67,14.28-2.08,26.14-3.6,26.35-3.39s-9.07,7.53-20.63,16.25c-28.72,21.69-29.45,22.37-28.73,26.85,1.04,6.43,1.53,7.11,4.68,6.43,1.67-.36,15.93-2.48,31.7-4.71h0ZM920.01,527.98c34.24-58.63,58.3-134.92,55.65-176.43-.92-14.43-4.97-34.42-6.86-33.9-2.12.59-14.27,25.54-21.92,45.02-8.7,22.14-15.27,42.7-22.07,69.06l-5.61,21.73-2.27-9.45c-3.94-16.4-10.44-30.53-25.47-55.3-8.02-13.22-17.03-28.37-20.03-33.66-2.99-5.29-5.89-9.64-6.43-9.67-1.69-.08-4.96,9.25-6.4,18.25-1.71,10.71.12,25.59,4.93,40.1,1.87,5.65,9.88,24.07,17.8,40.94,23.07,49.15,28.2,62.63,29.93,78.67,1.02,9.48,1.89,14,2.69,14,.32,0,3.04-4.21,6.05-9.36h0ZM63.19,529c.31-1.65,1.46-8.45,2.54-15.12,2.43-14.97,7.45-27.64,26.12-65.93,22.71-46.59,27.02-59.19,27.14-79.4.07-11.29-3.41-25.89-6.17-25.87-.82,0-2.45,1.65-3.63,3.67s-9.2,15.06-17.81,28.99c-18.9,30.58-24.98,42.42-30.55,59.44l-4.24,12.96-2.41-10.87c-9.19-41.41-25.37-88.21-41.02-118.64-2.71-5.26-3.6-6.1-4.87-4.57-5.38,6.48-7.93,46.1-4.4,68.34,4.65,29.27,16.01,65.96,30.51,98.53,9.77,21.95,25.32,51.47,27.1,51.47.61,0,1.37-1.35,1.69-3ZM815.55,507.63c.85-8.64,1.75-19.14,2-23.33l.45-7.63-6-.98c-11.03-1.81-65.99-6.09-66.9-5.22-.49.48-1.79,11.36-2.89,24.19-2.14,25.05-2.03,25.7,4.46,25.02,3.18-.33,3.38-.87,4.32-11.68.55-6.23,1.33-14.95,1.74-19.38l.75-8.04,9.59.96c5.28.53,10.43,1,11.45,1.04,1.53.07,1.67,2.46.79,13.75-1.8,23.04-2.01,21.67,3.36,21.67h4.67l1.03-11.33c.57-6.23,1.37-13.96,1.77-17.17l.74-5.84,9.27.66c5.1.36,9.63,1.02,10.06,1.45s.14,8.72-.65,18.41-1.11,18.15-.71,18.8c.4.65,2.62.99,4.93.76l4.21-.41,1.55-15.7ZM184,472.02v-10.64l32.33-.36,32.33-.36v-9.33l-32.33-.36-32.33-.36v-21.29h-9.33v53.33h9.33v-10.64ZM777.45,451.92c2.14-1.52,3.9-3.18,3.91-3.68s.54-1.73,1.18-2.73c.94-1.48,1.9-1.27,5.11,1.1,8.7,6.43,20.45,4.12,26.8-5.28,3.03-4.48,3.12-5.32,2.28-20.67-.48-8.8-1.17-17.02-1.53-18.26-.57-1.98-2.11-2.17-12.25-1.55-33.1,2.04-60.43,4.2-61.06,4.83-1.41,1.41,1.98,34.16,3.92,37.88,2.65,5.09,7.72,9.65,12.37,11.12,5.55,1.76,14.79.43,19.29-2.77h0ZM757.32,442.92c-2.44-1.98-3.23-4.6-4.38-14.66-.77-6.74-1.04-12.62-.59-13.07.45-.45,5.88-1.14,12.06-1.52l11.24-.7.95,10.15c1.06,11.31-.58,18.71-4.62,20.88-3.92,2.1-11.42,1.54-14.66-1.09ZM789.62,436.73c-1.76-2.24-2.87-6.5-3.5-13.49-.51-5.62-.74-10.37-.52-10.57s5.05-.78,10.74-1.29l10.33-.94v12.7c0,11.62-.25,12.88-2.96,14.78-4.57,3.2-11.06,2.65-14.08-1.2h0ZM250.03,417c1.71-4.68,7.07-45.77,6.1-46.74-.62-.62-2.85-.93-4.96-.69l-3.83.44-2.67,17.98c-3.06,20.62-2.24,19.78-16.77,17.33l-9.31-1.57.74-4.21c2.71-15.39,4.29-29.71,3.39-30.64-.58-.61-2.79-.91-4.89-.67l-3.83.44-2.53,16.85-2.53,16.85-5.47-.67c-3.01-.37-7.57-1.08-10.14-1.57-5.37-1.04-5.37-1.13-1.93-21.45,2.87-16.93,2.72-18.25-2.19-18.97-3.27-.48-4.33-.03-5.15,2.18-1.49,4.01-7.33,44.63-6.53,45.43.37.37,9.03,1.94,19.23,3.5,10.21,1.55,25.46,3.89,33.89,5.19,19.48,3.01,18.64,2.96,19.36,1h0ZM927.32,362.8c10.07-40.64,11.78-51.58,11.81-75.46.03-31.38-6.08-57.34-20.04-85.15-9.36-18.63-35.39-56.99-37.35-55.03-.37.37,1.16,5.41,3.39,11.2,8.34,21.63,11.44,46.23,12.87,102.32.43,16.87,1.06,32.77,1.39,35.33l.61,4.67-2.33-3.29c-10.57-14.93-39.78-48.01-68.89-78.04l-12.93-13.33.61,12c.93,18.38,8.55,39.59,21.5,59.84,5.41,8.46,24.77,33.39,40.5,52.16,15.33,18.29,20.84,26.7,27.81,42.48,12.16,27.5,11.23,25.81,12.5,22.86.63-1.47,4.48-16.11,8.55-32.54h0ZM788.33,368.17c16.81-10.03,18.33-11.26,18.33-14.79,0-4.18-2.98-8.05-6.22-8.05-1.11,0-15.62-1.47-32.24-3.27-42.75-4.62-39.48-4.51-39.93-1.39-.79,5.51,2.54,7.55,13.8,8.46l10.58.86,2.38,11.26c1.31,6.19,2.1,11.98,1.77,12.86s-4.28,3.61-8.76,6.07c-8.6,4.72-10.73,8.12-8.14,12.96,1.62,3.02.55,3.58,48.43-24.98h0ZM766.09,367.78c-1-3.07-3.49-16.16-3.12-16.35.2-.1,6.96.44,15.03,1.19l14.67,1.38-8.67,5.2c-18.12,10.87-17.29,10.47-17.91,8.58h0ZM67.19,377.04c9.39-20.67,14.52-29.86,21.15-37.92,3.11-3.78,12.33-14.93,20.5-24.79,39.34-47.48,51.08-69.29,54.51-101.34.57-5.37.46-9-.28-9-3.03,0-56.58,56.58-74.85,79.09-6.46,7.96-9.55,10.9-9.55,9.11,0-1.46.59-16.35,1.32-33.09,2.51-57.88,5.35-79.56,13.44-102.5,2.24-6.35,3.8-11.83,3.46-12.17s-4.5,4.37-9.25,10.47c-25.82,33.15-41.27,66.29-47.02,100.9-1.78,10.68-2.14,18.54-1.6,34.67.71,21.06,2.23,30.62,9.61,60.19,1.92,7.7,4.39,18.2,5.48,23.33,2.95,13.87,4.65,19.69,5.49,18.85.42-.42,3.83-7.53,7.59-15.8ZM261.86,352.56c2.32-6.05,1.24-7.02-12.86-11.36-7.52-2.32-13.88-4.4-14.14-4.62-.69-.6,6.6-22.29,8.15-24.24,1.78-2.25,9.8-2.1,17.78.32,10.06,3.05,12.39,2.68,14.49-2.31,2.25-5.36,1.68-6.34-3.69-6.36-2.34,0-7.55-.9-11.59-1.98-9-2.42-16.22-2.55-18.57-.33-1.42,1.34-1.9,1.31-2.42-.13-1.69-4.64-8.7-10.62-14.27-12.18-14.53-4.07-20.53,1.35-28.72,25.94-3.09,9.28-5.37,17.14-5.05,17.45,1.15,1.15,64.46,21.68,67.23,21.8,1.57.07,3.22-.83,3.67-1.99h0ZM214.37,330c-4.93-1.72-9.54-3.49-10.25-3.93-.76-.47-.02-4.44,1.81-9.76,5.96-17.33,7.13-18.56,16.04-16.89,4.87.91,10.03,5.9,10.03,9.7,0,3.38-6.66,24.23-7.71,24.12-.53-.05-4.99-1.51-9.93-3.24h0ZM733.33,326.04c0-.76-3.05-9.07-6.79-18.47-3.73-9.4-6.58-17.26-6.33-17.45,1.32-1.02,18.73-7.45,20.14-7.44.91,0,4.35,6.96,7.65,15.45s6.4,15.69,6.89,16c1.64,1.04,7.78-2.04,7.78-3.89,0-1.01-2.68-8.64-5.96-16.96s-5.83-15.21-5.67-15.32c1.45-.94,18.71-7.32,19.01-7.02.21.22,3.37,7.89,7.02,17.06,6.92,17.39,8.81,19.49,14.04,15.66,2.29-1.67,1.94-2.98-6.2-23.46-4.74-11.93-8.86-21.93-9.15-22.22s-14,4.87-30.48,11.46c-16.47,6.59-31.35,12.34-33.06,12.78s-3.41,1.58-3.79,2.55,2.43,9.74,6.23,19.5c11.29,28.98,9.82,26.48,14.56,24.69,2.26-.85,4.1-2.17,4.1-2.92h0ZM286.64,284.63c.02-.75-9.94-6.75-22.13-13.33-12.19-6.58-23.14-12.7-24.33-13.59-1.73-1.29,4.28-1.63,29.4-1.67l31.57-.04,2.81-3.58c1.55-1.97,2.64-4.44,2.43-5.5-.21-1.06-14.48-9.63-31.72-19.05l-31.33-17.13-2.3,2.96c-1.27,1.63-2.32,3.61-2.33,4.39-.02.79,10.92,7.39,24.3,14.67l24.33,13.24-32.06.36-32.06.36-2.27,3.85c-1.25,2.12-2.27,4.47-2.27,5.24,0,1.43,12.19,8.53,44.67,26.02l18.67,10.05,2.3-2.94c1.27-1.61,2.32-3.55,2.33-4.3h0ZM715.58,261.26c6.59-2.47,13.49-8.02,15.66-12.57,3-6.31,2.63-11.66-1.9-27.8-5.03-17.9-5.02-19.79.1-24.1,7.87-6.62,16.93-3.35,22.12,7.99,3.84,8.39,3.4,13.24-1.62,17.96-4.02,3.78-4.05,4.94-.22,9.73l3.04,3.79,5.55-5.39c9.57-9.28,10.41-20.67,2.52-33.83-9.73-16.22-25.23-19.32-40.5-8.09-9.36,6.89-10.26,13.78-4.33,33.05,5.88,19.11,5.09,24.9-3.92,28.63-5.25,2.17-9.57.98-15.59-4.3-10.51-9.23-11.28-24.09-1.6-30.88q2.9-2.03.37-6.75c-1.4-2.59-3.1-4.71-3.8-4.71-2.66,0-12.71,12.12-14.05,16.94-1.87,6.73-1.78,9.35.54,17.15,3.8,12.72,17.4,24.58,28.21,24.58,3.11,0,7.34-.63,9.41-1.41ZM880,235.26c0-4.15-8.01-33.64-13.37-49.26-16.05-46.71-44.14-102.62-68.29-135.94-6.73-9.29-11.12-11.63-9.48-5.06.5,2.02,5.56,17.78,11.23,35.03,9.84,29.9,15.05,50.44,16.33,64.3.32,3.48.41,6.33.21,6.33s-7.48-4.42-16.17-9.81c-8.69-5.4-19.09-11.47-23.13-13.49-8.28-4.15-20.23-13.42-38.41-29.8-6.83-6.15-12.72-10.87-13.09-10.5-1.74,1.74,12.4,24.81,25.51,41.61,10.52,13.48,32.38,35.1,48.18,47.66,6.7,5.32,25,19.08,40.67,30.58s30.59,23.03,33.15,25.62c5.16,5.22,6.67,5.84,6.67,2.73h0ZM320.23,231.13c3.44-3.11,3.08-5.39-2.23-14.19-2.56-4.25-4.64-8.75-4.62-10,.02-1.25,3.47-6,7.67-10.57l7.62-8.3,9.13,3.97c5.02,2.18,9.96,3.97,10.97,3.97,2.47,0,6.63-6.48,5.1-7.93-.66-.62-16.31-7.23-34.79-14.69-35.58-14.36-36.89-14.62-40.41-8.05-1.17,2.19,1.71,7.79,18.19,35.3,10.77,17.98,19.89,32.7,20.26,32.7s1.78-.99,3.12-2.21h0ZM299.37,186.5c-4.14-6.66-7.29-12.35-7-12.64.53-.53,24.36,9.11,25.61,10.35.36.36-1.98,3.75-5.21,7.53l-5.87,6.88-7.53-12.11ZM106.43,226.81c3.43-2.85,15.54-11.65,26.91-19.54,45.08-31.31,68.28-50.52,88.11-72.97,14.56-16.47,35.03-47.59,32.79-49.83-.49-.49-4.65,2.66-9.24,7.02-17.8,16.89-34.86,29.41-51.48,37.77-4.66,2.34-13.03,7.22-18.59,10.84s-10.61,6.58-11.22,6.58-.8-1.35-.44-3c.36-1.65,1.64-8.99,2.84-16.31,1.34-8.21,6.72-27.18,14.03-49.52,6.52-19.91,11.85-37.15,11.85-38.31,0-3.88-3.83-.77-11.38,9.26-27.74,36.85-67.86,121.74-78.72,166.55-3.34,13.79-3.77,16.67-2.47,16.67.42,0,3.57-2.34,7-5.19ZM648,190c.98-1.83,1.53-3.51,1.23-3.74-.31-.22-5.66-4.54-11.89-9.6-6.23-5.06-11.54-9.33-11.8-9.5-.25-.17,8.61-11.52,19.7-25.22,21.08-26.04,21.28-26.45,14.63-30.01-1.98-1.06-5.88,3.08-25.11,26.66-12.52,15.35-22.76,28.4-22.75,29,0,.59,3.69,4.08,8.19,7.75,4.5,3.67,11.24,9.2,14.99,12.3,7.89,6.52,10.34,6.98,12.81,2.36h0ZM371.26,177.42c1.38-1.52,1.91-3.28,1.29-4.27-.57-.93-8.83-11.62-18.34-23.75-9.52-12.13-17.83-22.75-18.47-23.6-.79-1.03,1.47-3.62,6.88-7.86,4.43-3.48,8.05-7.05,8.05-7.92,0-2.6-4.98-6.38-6.92-5.24-4.07,2.39-39.75,31.37-39.72,32.26.02.53,1.15,2.43,2.52,4.21l2.49,3.23,8.59-6.84,8.59-6.84,19.53,24.6c10.74,13.53,20.35,24.6,21.35,24.6s2.87-1.16,4.16-2.58ZM606.92,151.98c1.45-13.71,4.84-42.33,6.39-53.98,1.41-10.59,1.39-10.69-2.02-13.67-1.89-1.65-4.22-3-5.17-3s-7.67,6.14-14.93,13.64c-7.26,7.5-19.04,19.68-26.19,27.08-7.15,7.39-13,14.08-13,14.87s1.91,2.22,4.24,3.19q4.24,1.75,11.97-6.78l7.73-8.53,9.7,4.55c5.33,2.5,10.38,5.17,11.22,5.94,1.11,1.01,1.16,4.08.19,11.32-1.28,9.52-1.21,10.04,1.7,12.39,5.25,4.25,7.16,2.61,8.18-7.01h0ZM590.44,121.45l-7.56-3.68,3.2-3.72c5.89-6.85,16.88-18.2,17.23-17.78.67.8-3.73,29.07-4.51,28.97-.44-.06-4.2-1.76-8.36-3.78ZM407.4,153.83l3.31-2.17-6.51-12.16c-3.58-6.69-10.88-20.56-16.23-30.83-12.26-23.55-11.33-22.4-16.11-19.93-2.13,1.1-3.87,2.46-3.87,3.02,0,1.01,15.96,31.9,27.52,53.25,3.27,6.05,6.54,11,7.26,11s2.8-.98,4.62-2.17h0ZM458.44,136.53c8.01-3.99,12.29-9.12,15.38-18.43,4.01-12.08,2.03-26.37-5.51-39.79-5.27-9.38-12.76-14.57-22.16-15.35-22.36-1.85-36.85,11.9-36.8,34.95.03,16.26,9.53,33.53,21.99,40,6.46,3.35,18.88,2.72,27.11-1.38h0ZM438.16,129.29c-13.6-4.07-22.49-29.11-15.75-44.36,3.47-7.84,9.28-11.58,17.99-11.59,11.23,0,18.37,6.03,22.75,19.23,5.08,15.32,1.1,29.61-9.77,35.1-6.31,3.18-9.04,3.47-15.23,1.62h0ZM543.96,133c.68-1.65,2.83-17.92,4.78-36.17,3.8-35.51,3.8-35.43-2.93-35.48-3.42-.02-3.48.26-6.61,30.65-1.25,12.1-2.63,22.42-3.07,22.93s-4.37-7.89-8.72-18.67c-4.35-10.78-9.87-23.94-12.26-29.26-4.33-9.63-4.36-9.67-9.61-9.67-4.89,0-5.32.31-6.05,4.33-1.84,10.17-7.57,65.59-6.95,67.22.71,1.84,8.74,2.55,8.81.78.02-.55.59-5.2,1.25-10.33.67-5.13,1.87-15.79,2.67-23.68s1.9-15.53,2.43-16.98c.73-1.97,3.98,4.62,12.95,26.29,10.34,24.97,12.44,29.05,15.31,29.84,5.6,1.55,6.68,1.3,7.96-1.81h0ZM794.73,112.84c-2.86-7.52-15.51-31.56-20.9-39.71-3.23-4.88-10.88-13.62-17.02-19.43-16.33-15.46-33.33-23.15-55.82-25.25-11.88-1.11-11.71.56,1.13,10.88,5.48,4.4,14.72,13.46,20.53,20.13,18.89,21.68,36.86,36.9,58.73,49.72,13.05,7.65,15.07,8.21,13.34,3.65ZM211.33,98.2c14.9-9.91,22.62-16.47,38.67-32.82,21.62-22.04,28.72-28.81,35.19-33.58,7.34-5.4,5.94-7.01-5.2-5.98-37.97,3.53-68.02,27.62-89.27,71.56-7.81,16.15-7.46,17.23,3.61,11.11,4.95-2.74,12.6-7.37,17-10.29h0Z"/>
  </g>
</svg>