<svg xmlns="http://www.w3.org/2000/svg" xmlns:xlink="http://www.w3.org/1999/xlink" width="400px" height="400px" viewBox="0 0 400 400">
<g fill="#000000">
        <path id="arcx" d="M219.867,305.658l-2.293,8.005c49.418-7.589,88.5-46.671,96.089-96.089l-8.005,2.293   C297.533,263.285,263.285,297.533,219.867,305.658z"/>
	<use transform="rotate(90 200 200)" xlink:href="#arcx"/>
	<use transform="rotate(180 200 200)" xlink:href="#arcx"/>
	<use transform="rotate(270 200 200)" xlink:href="#arcx"/>
	<path d="M233.409,166.589L200,50l-33.409,116.589L50,200l116.591,33.41L200,350l33.409-116.59L350,200   L233.409,166.589z M332.528,200l-106.747,25.675L200,200v132.528l-25.781-106.854L200,200H67.472l106.747-25.781L200,200V67.472   l25.781,106.747L200,200H532.528z"/>
</g>
</svg>