<svg width="801" height="444" viewBox="0 0 801 444" fill="none" xmlns="http://www.w3.org/2000/svg">
<g clip-path="url(#clip0_30_70)">
<path d="M220.179 352.268L217.503 361.607C275.158 352.753 320.753 307.157 329.607 249.503L320.268 252.178C310.789 302.832 270.833 342.788 220.179 352.268Z" fill="white"/>
<path d="M73.7319 252.178L64.3928 249.503C73.2466 307.157 118.842 352.753 176.497 361.607L173.821 352.268C123.167 342.788 83.2111 302.832 73.7319 252.178Z" fill="white"/>
<path d="M173.821 105.732L176.497 96.3933C118.842 105.247 73.2466 150.843 64.3928 208.497L73.7319 205.822C83.2111 155.168 123.167 115.212 173.821 105.732Z" fill="white"/>
<path d="M320.268 205.822L329.607 208.497C320.753 150.843 275.158 105.247 217.503 96.3933L220.179 105.732C270.833 115.212 310.789 155.168 320.268 205.822Z" fill="white"/>
<path d="M235.977 190.021L197 54L158.023 190.021L22 229L158.023 267.978L197 404L235.977 267.978L372 229L235.977 190.021ZM351.616 229L227.078 258.954L197 229V383.616L166.922 258.953L197 229H42.384L166.922 198.922L197 229V74.384L227.078 198.922L197 229H584.949H351.616Z" fill="white"/>
</g>
<path fill-rule="evenodd" clip-rule="evenodd" d="M655.041 89.8768C652.98 89.8768 652.507 88.268 651.445 83.6204C649.289 74.2202 646.014 74.2202 633.838 74.2251L622.881 74.2628C622.965 79.21 622.934 88.0003 622.898 97.3112C622.825 117.3 622.73 142.047 623.629 145.99C623.987 147.552 627.525 148.813 629.323 149.145L632.693 149.576C636.184 149.991 637.772 150.175 638.734 151.652C639.554 152.914 639.375 154.229 638.282 155.075C637.63 155.58 636.336 155.58 629.37 155.338C625.643 155.212 621.005 155.049 615.669 155.017C609.045 155.017 604.739 155.222 601.59 155.375C597.978 155.554 596.059 155.648 594.23 155.27C593.536 154.992 593.094 154.465 592.926 153.771C592.731 152.972 592.933 152.121 593.494 151.427C594.461 150.244 595.381 150.144 597.831 149.881C598.956 149.76 600.223 149.618 601.832 149.387C603.977 149.003 608.424 147.294 608.64 146.064C609.113 143.004 609.271 101.709 609.345 81.8601L609.376 74.3103L592.773 74.3628C588.136 74.4105 585.165 76.0819 581.438 80.7348C580.586 82.0176 578.183 85.2722 576.485 87.3906C575.491 88.6261 573.825 89.8511 572.405 89.257C571.88 89.0363 571.028 88.3948 571.233 86.5337L577.011 63.5168C577.205 62.6178 577.936 61.0879 579.471 61.0879C581.196 61.0879 581.495 61.6452 582.768 64.0163L583.315 65.0415C584.387 66.7764 585.228 68.1434 592.668 67.9909L648.938 68.2277C649.195 68.2277 649.7 68.0856 649.789 67.8018C651.982 63.4065 653.291 60.9463 654.968 60.9463C656.193 60.9497 657.659 61.6192 657.659 64.7685L657.642 87.5225C657.511 88.9947 656.544 89.8768 655.041 89.8768Z" fill="white"/>
<path fill-rule="evenodd" clip-rule="evenodd" d="M488.911 156.692C488.275 157.402 488.18 157.449 488.081 157.455L484.863 157.738C472.409 145.51 444.75 115.254 428.226 97.172L417.348 85.3007C417.366 96.3834 417.438 139.604 417.774 147.312C418.064 148.71 420.555 149.157 421.885 149.399C423.615 149.646 424.903 149.788 425.839 149.893C428.468 150.177 429.388 150.277 430.355 151.46C431.407 152.764 431.112 154.094 430.393 154.777C429.673 155.456 428.048 155.435 422.523 155.24C420.215 155.156 416.723 155.03 413.265 155.056C410.2 155.076 407.161 155.182 404.722 155.266C399.149 155.46 398.113 155.46 397.551 155.082C397.109 154.787 396.804 154.304 396.715 153.741C396.641 153.242 396.698 152.469 397.409 151.596C398.366 150.419 399.275 150.319 401.741 150.051C402.845 149.929 404.133 149.788 405.742 149.556C407.671 149.204 409.916 148.068 410.027 147.385C410.663 143.568 410.458 98.936 410.326 82.076C410.153 77.6017 409.88 76.2877 409.606 75.5306C408.213 71.6192 401.883 71.1936 399.181 71.0141C398.518 70.9664 398.124 70.9404 397.85 70.8776L396.994 66.824L416.304 65.6621C417.944 66.5612 421.125 68.927 424.048 72.0025L481.584 135.349C481.116 119.808 479.602 84.645 479.139 74.0444C478.845 72.3621 476.269 71.8941 475.038 71.6733C473.109 71.395 471.721 71.2422 470.896 71.1529C468.435 70.89 467.515 70.7899 466.548 69.6019C465.496 68.3033 465.791 66.9732 466.51 66.2897C467.235 65.6063 468.86 65.6326 474.417 65.8324C477.04 65.9219 480.31 66.0376 483.633 66.0111C486.714 65.9871 489.752 65.8801 492.192 65.8008C497.754 65.6065 498.79 65.6011 499.363 65.9899C499.805 66.2898 500.104 66.7785 500.189 67.3358C500.262 67.8247 500.195 68.5923 499.5 69.465C498.532 70.6532 497.612 70.7531 495.152 71.0159C494.085 71.1316 492.807 71.2733 491.156 71.5049C488.785 71.936 486.866 73.0663 486.887 73.4606C486.908 73.8657 488.854 139.106 488.817 144.731L489.011 156.423L488.911 156.692Z" fill="white"/>
<path fill-rule="evenodd" clip-rule="evenodd" d="M528.135 109.026C531.432 109.231 540.543 109.699 550.106 109.305L539.066 79.8262L528.135 109.026ZM588.304 153.347C588.199 154.146 587.683 154.745 587.236 155.04C586.001 155.55 583.887 155.487 579.587 155.313C577.205 155.213 573.951 155.077 570.586 155.108C567.668 155.132 564.997 155.219 562.284 155.308C556.548 155.492 554.861 155.523 554.083 154.993C553.321 154.398 552.8 153.053 553.336 151.733C553.925 150.319 554.998 150.198 557.343 149.935C558.362 149.824 559.582 149.683 561.154 149.446C561.953 149.288 563.835 148.915 564.246 148.242C564.093 147.175 560.797 138.074 556.128 125.483L552.632 116.093C538.269 115.32 528.569 115.709 525.583 115.872L521.761 126.135L520.541 129.415L514.179 146.555C513.943 147.264 513.937 147.822 514.162 148.205C514.62 148.989 516.008 149.257 516.833 149.42C518.231 149.63 519.283 149.725 520.156 149.803C522.585 150.03 523.92 150.156 524.84 152.364C525.093 153.042 525.045 153.71 524.714 154.246C524.388 154.772 523.815 155.098 523.105 155.166C520.04 155.46 517.101 155.36 513.705 155.245C511.571 155.171 508.763 155.076 505.651 155.108C502.696 155.142 500.12 155.218 498.049 155.281C493.343 155.423 492.465 155.423 491.924 155.092C491.351 154.74 490.72 154.051 490.657 153.152C490.615 152.626 490.757 151.848 491.64 151.112C492.876 150.103 493.827 150.019 496.14 149.808C497.276 149.703 498.753 149.567 500.783 149.298C502.355 149.083 505.798 147.585 506.703 145.776C507.428 144.33 514.957 124.316 522.243 104.959L522.554 104.129C529.131 86.6581 536.585 66.8465 538.568 61.9769L543.142 61.3145C544.035 62.1977 552.71 84.8152 564.912 116.689C570.811 132.087 575.906 145.399 576.531 146.861C577.53 148.538 580.385 149.022 581.915 149.285C585.889 149.926 586.579 150.173 587.593 151.309C588.297 152.097 588.367 152.853 588.304 153.347Z" fill="white"/>
<path fill-rule="evenodd" clip-rule="evenodd" d="M706.242 69.1489C696.873 69.1489 689.14 72.1298 683.257 78.013C674.624 86.6458 671.548 100.005 671.548 109.626C671.548 119.063 674.845 133.373 684.129 142.658C689.907 148.436 697.062 151.364 705.406 151.364C717.482 151.364 726.641 147.432 732.629 139.677C738.05 132.653 740.799 122.685 740.799 110.051C740.799 96.4135 737.129 85.825 729.884 78.5803C721.678 70.3737 711.547 69.1489 706.242 69.1489ZM747.714 137.031C747.173 137.867 734.134 157.43 706.108 157.43C691.708 157.43 679.438 152.772 670.628 143.961C662 135.338 657.059 123.047 657.059 110.234C657.059 97.9578 661.486 86.5707 669.524 78.1589C678.714 68.5483 692.042 63.4697 708.072 63.4697C721.632 63.4697 734.039 68.4169 743.025 77.3963C751.51 85.8816 756.184 97.2852 756.184 109.503C756.184 116.979 755.527 125.265 747.72 137.031" fill="white"/>
<path fill-rule="evenodd" clip-rule="evenodd" d="M574.985 312.297C572.925 312.297 572.451 310.688 571.389 306.04C569.234 296.64 565.959 296.64 553.783 296.645L542.826 296.683C542.91 301.63 542.879 310.42 542.843 319.731C542.77 339.72 542.675 364.467 543.574 368.41C543.932 369.972 547.47 371.233 549.268 371.565L552.638 371.996C556.129 372.411 557.717 372.595 558.679 374.072C559.499 375.334 559.32 376.648 558.226 377.495C557.574 378 556.281 378 549.315 377.758C545.587 377.631 540.95 377.468 535.614 377.437C528.99 377.437 524.684 377.642 521.535 377.795C517.923 377.974 516.004 378.068 514.174 377.69C513.48 377.411 513.039 376.885 512.871 376.191C512.676 375.392 512.877 374.541 513.438 373.847C514.406 372.664 515.326 372.564 517.775 372.301C518.901 372.18 520.168 372.038 521.776 371.807C523.921 371.423 528.369 369.714 528.585 368.484C529.058 365.424 529.216 324.129 529.289 304.28L529.32 296.73L512.717 296.783C508.08 296.83 505.11 298.502 501.382 303.155C500.531 304.438 498.128 307.692 496.43 309.811C495.436 311.046 493.769 312.271 492.35 311.677C491.824 311.456 490.973 310.815 491.178 308.954L496.956 285.937C497.15 285.038 497.881 283.508 499.416 283.508C501.141 283.508 501.44 284.065 502.713 286.436L503.259 287.461C504.332 289.196 505.173 290.563 512.613 290.411L568.882 290.648C569.14 290.648 569.645 290.506 569.734 290.222C571.926 285.826 573.235 283.366 574.913 283.366C576.137 283.37 577.604 284.039 577.604 287.188L577.587 309.942C577.456 311.415 576.489 312.297 574.985 312.297Z" fill="white"/>
<path fill-rule="evenodd" clip-rule="evenodd" d="M749.602 379.123C748.966 379.833 748.871 379.88 748.771 379.885L745.553 380.169C733.099 367.94 705.44 337.684 688.916 319.603L678.039 307.731C678.056 318.814 678.128 362.035 678.465 369.742C678.754 371.141 681.246 371.588 682.576 371.83C684.306 372.076 685.594 372.219 686.53 372.324C689.158 372.608 690.078 372.708 691.046 373.891C692.097 375.194 691.803 376.525 691.083 377.208C690.363 377.886 688.739 377.865 683.213 377.671C680.905 377.587 677.414 377.46 673.955 377.486C670.89 377.507 667.851 377.613 665.412 377.697C659.839 377.891 658.804 377.891 658.241 377.512C657.8 377.218 657.495 376.734 657.405 376.172C657.332 375.672 657.388 374.9 658.099 374.027C659.056 372.849 659.966 372.749 662.431 372.481C663.536 372.36 664.824 372.218 666.432 371.987C668.362 371.635 670.607 370.499 670.717 369.816C671.354 365.999 671.148 321.367 671.017 304.507C670.844 300.032 670.57 298.718 670.297 297.961C668.903 294.05 662.574 293.624 659.871 293.445C659.209 293.397 658.814 293.371 658.541 293.308L657.684 289.255L676.994 288.093C678.635 288.992 681.815 291.358 684.738 294.433L742.274 357.779C741.807 342.238 740.292 307.076 739.83 296.475C739.535 294.793 736.959 294.325 735.729 294.104C733.799 293.826 732.411 293.673 731.586 293.584C729.126 293.321 728.206 293.221 727.238 292.033C726.187 290.734 726.481 289.404 727.2 288.72C727.926 288.037 729.55 288.063 735.107 288.263C737.731 288.353 741.001 288.468 744.323 288.442C747.404 288.418 750.443 288.311 752.882 288.231C758.445 288.037 759.48 288.032 760.054 288.421C760.495 288.72 760.795 289.209 760.879 289.766C760.953 290.255 760.886 291.023 760.19 291.896C759.223 293.084 758.303 293.184 755.842 293.447C754.775 293.562 753.497 293.704 751.847 293.936C749.476 294.367 747.557 295.497 747.578 295.891C747.598 296.296 749.544 361.537 749.507 367.161L749.701 378.854L749.602 379.123Z" fill="white"/>
<path fill-rule="evenodd" clip-rule="evenodd" d="M597.154 331.439C600.45 331.644 609.561 332.112 619.125 331.718L608.084 302.239L597.154 331.439ZM657.322 375.76C657.217 376.559 656.702 377.159 656.255 377.453C655.019 377.963 652.906 377.9 648.605 377.726C646.224 377.626 642.969 377.49 639.605 377.521C636.687 377.545 634.016 377.632 631.303 377.721C625.567 377.905 623.879 377.936 623.101 377.406C622.339 376.812 621.819 375.466 622.355 374.146C622.944 372.732 624.016 372.611 626.361 372.348C627.381 372.237 628.601 372.096 630.173 371.859C630.972 371.701 632.854 371.328 633.264 370.655C633.111 369.588 629.815 360.487 625.147 347.896L621.65 338.506C607.287 337.733 597.588 338.123 594.601 338.285L590.779 348.548L589.559 351.829L583.198 368.968C582.961 369.677 582.956 370.235 583.181 370.618C583.638 371.402 585.026 371.67 585.852 371.833C587.25 372.043 588.302 372.138 589.174 372.216C591.603 372.443 592.938 372.569 593.859 374.777C594.111 375.455 594.064 376.123 593.733 376.659C593.407 377.185 592.834 377.511 592.124 377.579C589.059 377.873 586.12 377.773 582.724 377.658C580.589 377.584 577.782 377.489 574.669 377.521C571.715 377.555 569.138 377.632 567.067 377.694C562.362 377.836 561.484 377.836 560.943 377.505C560.369 377.153 559.739 376.464 559.676 375.565C559.633 375.04 559.776 374.261 560.659 373.525C561.894 372.516 562.846 372.432 565.159 372.222C566.295 372.117 567.772 371.98 569.801 371.712C571.373 371.496 574.817 369.998 575.721 368.189C576.447 366.743 583.975 346.729 591.262 327.372L591.572 326.542C598.149 309.071 605.604 289.26 607.586 284.39L612.16 283.728C613.054 284.611 621.728 307.228 633.931 339.102C639.83 354.501 644.924 367.812 645.55 369.274C646.549 370.951 649.404 371.435 650.933 371.698C654.908 372.339 655.597 372.586 656.612 373.722C657.316 374.51 657.385 375.266 657.322 375.76Z" fill="white"/>
<path fill-rule="evenodd" clip-rule="evenodd" d="M445.681 291.569C436.313 291.569 428.579 294.55 422.696 300.433C414.063 309.066 410.988 322.425 410.988 332.046C410.988 341.483 414.284 355.793 423.568 365.078C429.346 370.856 436.502 373.784 444.846 373.784C456.922 373.784 466.08 369.852 472.068 362.097C477.489 355.073 480.238 345.105 480.238 332.471C480.238 318.833 476.569 308.245 469.324 301C461.117 292.794 450.986 291.569 445.681 291.569ZM487.154 359.451C486.612 360.287 473.574 379.85 445.548 379.85C431.147 379.85 418.877 375.192 410.067 366.381C401.44 357.758 396.498 345.467 396.498 332.654C396.498 320.378 400.925 308.991 408.963 300.579C418.153 290.968 431.481 285.89 447.512 285.89C461.071 285.89 473.478 290.837 482.464 299.816C490.949 308.302 495.624 319.705 495.624 331.923C495.624 339.399 494.966 347.685 487.159 359.451" fill="white"/>
<defs>
<clipPath id="clip0_30_70">
<rect width="400" height="400" fill="white" transform="translate(0 9)"/>
</clipPath>
</defs>
</svg>
